<svg width="1024" height="1024" viewBox="0 0 1024 1024" xmlns="http://www.w3.org/2000/svg">
  <defs>
    <radialGradient id="bgGlow" cx="50%" cy="44%" r="62%">
      <stop offset="0%" stop-color="#15203a"/>
      <stop offset="55%" stop-color="#0a0d18"/>
      <stop offset="100%" stop-color="#05060c"/>
    </radialGradient>
    <linearGradient id="prism" x1="0%" y1="100%" x2="100%" y2="0%">
      <stop offset="0%" stop-color="#22d3ee"/>
      <stop offset="35%" stop-color="#22c55e"/>
      <stop offset="60%" stop-color="#fbbf24"/>
      <stop offset="100%" stop-color="#e879f9"/>
    </linearGradient>
    <radialGradient id="ocean" cx="42%" cy="38%" r="70%">
      <stop offset="0%" stop-color="#101830"/>
      <stop offset="100%" stop-color="#080c1a"/>
    </radialGradient>
    <clipPath id="globeClip"><circle cx="512" cy="520" r="300"/></clipPath>
    <filter id="soft" x="-40%" y="-40%" width="180%" height="180%"><feGaussianBlur stdDeviation="14"/></filter>
    <filter id="route" x="-60%" y="-60%" width="220%" height="220%"><feGaussianBlur stdDeviation="10"/></filter>
  </defs>

  <rect x="0" y="0" width="1024" height="1024" rx="232" fill="url(#bgGlow)"/>
  <ellipse cx="512" cy="560" rx="360" ry="300" fill="url(#prism)" opacity="0.22" filter="url(#soft)"/>

  <circle cx="512" cy="520" r="300" fill="url(#ocean)" stroke="rgba(255,255,255,0.14)" stroke-width="3"/>
  <g clip-path="url(#globeClip)">
    <path d="M523.18,220.208L517.604,220.784L512,222.92M508.347,220.022L512,222.92M492.572,220.63L502.257,220.89L512,222.92M470.647,222.864L491.223,221.456L512,222.92M426.202,232.53L447.164,227.282L468.543,223.919L490.201,222.461L512,222.92M258.016,360.338L280.004,329.897L305.727,302.517L334.77,278.637L366.666,258.644L400.901,242.857L436.926,231.532L474.158,224.85L512,222.92M373.72,786.23L340.898,766.145L311.152,741.635L285.016,713.142L262.96,681.177L245.38,646.315L232.592,609.183L224.826,570.448L222.222,530.806L223.618,501.635L227.79,472.641L234.7,444.103L244.28,416.296L256.439,389.487L271.059,363.936L287.999,339.887L307.096,317.574L328.167,297.209L351.008,278.99L375.4,263.092L401.107,249.669L427.882,238.849L455.467,230.736L483.597,225.409L512,222.92M453.516,814.244L433.893,809.287L414.809,802.33L396.398,793.423L378.785,782.625L362.093,770.013L346.436,755.673L331.924,739.704L318.657,722.217L306.726,703.332L296.213,683.18L287.192,661.9L279.724,639.64L273.862,616.553L269.645,592.798L267.104,568.541L266.254,543.948L267.438,514.714L270.976,485.53L276.836,456.679L284.961,428.437L295.272,401.077L307.67,374.863L322.036,350.046L338.232,326.866L356.101,305.546L375.471,286.291L396.156,269.287L417.957,254.698L440.664,242.663L464.057,233.3L487.913,226.697L512,222.92M482.903,818.586L468.184,815.997L453.802,811.14L439.865,804.053L426.48,794.79L413.751,783.422L401.775,770.035L390.643,754.734L380.44,737.633L371.246,718.866L363.13,698.575L356.154,676.916L350.372,654.055L342.559,605.435L339.927,554.201L340.756,524.918L343.233,495.586L347.336,466.491L353.025,437.91L360.245,410.12L368.927,383.388L378.986,357.972L390.326,334.116L402.838,312.051L416.401,291.988L430.885,274.121L446.151,258.622L462.05,245.64L478.43,235.3L495.134,227.702L512,222.92M500.82,819.792L494.024,818.346L487.371,814.531L480.913,808.378L474.702,799.934L463.216,776.461L453.276,744.858L445.199,706.127L439.238,661.494L435.585,612.376L434.354,560.329L435.846,501.597L440.265,443.572L447.44,388.484L457.096,338.45L468.862,295.392L482.286,260.967L489.461,247.419L496.852,236.496L504.389,228.303L512,222.92M515.653,819.978L517.95,818.751L520.2,815.138L524.485,800.884L528.373,777.672L531.738,746.241L536.492,662.964L538.147,561.593L536.156,444.739L530.489,339.343L526.526,296.095L522.006,261.45L517.101,236.742L512,222.92M531.428,819.37L542.433,817.478L553.199,813.254L563.643,806.732L573.681,797.962L583.237,787.014L592.234,773.973L600.602,758.942L608.275,742.038L621.304,703.154L630.914,658.541L636.802,609.592L638.785,557.84L636.349,499.155L629.135,441.272L617.418,386.414L601.651,336.689L592.432,314.359L582.438,294.009L571.766,275.836L560.519,260.014L548.804,246.696L536.735,236.01L524.427,228.059L512,222.92M553.353,817.136L571.054,813.556L588.319,807.81L605.021,799.941L621.037,790.007L636.249,778.081L650.544,764.252L663.817,748.621L675.97,731.303L686.914,712.427L696.567,692.132L704.859,670.567L711.729,647.891L717.125,624.272L721.008,599.883L723.35,574.906L724.132,549.523L723.111,520.262L720.056,490.998L714.998,462.014L707.984,433.588L699.084,405.994L688.381,379.498L675.98,354.356L662,330.808L646.575,309.083L629.854,289.389L611.998,271.916L593.179,256.831L573.579,244.282L553.385,234.388L532.793,227.244L512,222.92M597.798,807.47L617.668,800.585L636.894,791.989L655.358,781.734L672.948,769.883L689.556,756.509L705.082,741.692L719.431,725.524L732.514,708.102L744.253,689.533L754.576,669.93L763.419,649.413L770.729,628.107L776.462,606.142L780.581,583.651L783.063,560.773L783.892,537.645L782.583,508.441L778.668,479.349L772.185,450.647L763.196,422.614L751.788,395.519L738.07,369.622L722.176,345.174L704.257,322.409L684.487,301.548L663.055,282.79L640.169,266.316L616.049,252.286L590.926,240.834L565.044,232.07L538.65,226.08L512,222.92M765.984,679.663L776.293,661.907L785.33,643.468L793.052,624.435L799.421,604.9L804.407,584.956L807.985,564.699L810.139,544.227L810.858,523.639L809.419,494.502L805.116,465.611L797.99,437.244L788.109,409.674L775.57,383.166L760.492,357.977L743.021,334.347L723.325,312.506L701.594,292.662L678.037,275.008L652.881,259.714L626.368,246.926L598.754,236.768L570.304,229.338L541.293,224.707L512,222.92M650.28,253.77L617.624,239.419L583.335,229.402L547.945,223.874L512,222.92M570.484,225.756L541.454,222.191L512,222.92M541.097,221.414L526.601,221.089L512,222.92M480.549,818.347L482.12,818.506L484.01,818.682L485.953,818.846L487.945,818.998L489.984,819.138L492.064,819.265L494.183,819.38L496.335,819.482L498.517,819.57L500.725,819.645L502.954,819.707L505.2,819.755L507.46,819.79L509.728,819.81L512,819.817L514.272,819.81L516.54,819.79L518.8,819.755L521.046,819.707L523.275,819.645L525.483,819.57L527.665,819.482L529.817,819.38L531.936,819.265L534.016,819.138L536.055,818.998L538.047,818.846L539.99,818.682L541.88,818.506L543.451,818.347M366.538,782.375L367.111,782.682L368.942,783.557L371.046,784.419L373.418,785.268L376.054,786.102L378.948,786.919L382.096,787.717L385.491,788.496L389.127,789.253L392.997,789.988L397.093,790.698L401.408,791.383L405.934,792.041L410.661,792.671L415.582,793.271L420.686,793.841L425.964,794.38L431.405,794.886L437,795.358L442.738,795.796L448.607,796.199L454.597,796.566L460.697,796.896L466.894,797.189L473.177,797.444L479.534,797.66L485.953,797.838L492.421,797.977L498.927,798.076L505.457,798.135L512,798.155L518.543,798.135L525.073,798.076L531.579,797.977L538.047,797.838L544.466,797.66L550.823,797.444L557.106,797.189L563.303,796.896L569.403,796.566L575.393,796.199L581.262,795.796L587,795.358L592.595,794.886L598.036,794.38L603.314,793.841L608.418,793.271L613.339,792.671L618.066,792.041L622.592,791.383L626.907,790.698L631.003,789.988L634.873,789.253L638.509,788.496L641.904,787.717L645.052,786.919L647.946,786.102L650.582,785.268L652.954,784.419L655.058,783.557L656.889,782.682L657.462,782.375M283.809,714.754L284.153,715.134L285.678,716.514L287.634,717.882L290.017,719.238L292.823,720.577L296.046,721.899L299.68,723.199L303.718,724.477L308.153,725.728L312.976,726.952L318.177,728.145L323.748,729.305L329.677,730.43L335.953,731.518L342.564,732.568L349.497,733.576L356.74,734.541L364.279,735.461L372.099,736.334L380.184,737.159L388.521,737.935L397.093,738.658L405.884,739.33L414.877,739.947L424.054,740.509L433.399,741.015L442.894,741.463L452.52,741.854L462.259,742.185L472.093,742.458L482.003,742.67L491.97,742.822L501.976,742.913L512,742.943L522.024,742.913L532.03,742.822L541.997,742.67L551.907,742.458L561.741,742.185L571.48,741.854L581.106,741.463L590.601,741.015L599.946,740.509L609.123,739.947L618.116,739.33L626.907,738.658L635.479,737.935L643.816,737.159L651.901,736.334L659.721,735.461L667.26,734.541L674.503,733.576L681.436,732.568L688.047,731.518L694.323,730.43L700.252,729.305L705.823,728.145L711.024,726.952L715.847,725.728L720.282,724.477L724.32,723.199L727.954,721.899L731.177,720.577L733.983,719.238L736.366,717.882L738.322,716.514L739.847,715.134L740.191,714.754M230.466,623.627L231.165,625.027L232.504,626.729L234.375,628.42L236.775,630.099L239.698,631.762L243.14,633.405L247.093,635.026L251.551,636.622L256.505,638.188L261.945,639.724L267.861,641.224L274.241,642.688L281.075,644.111L288.348,645.492L296.046,646.827L304.156,648.114L312.661,649.35L321.546,650.534L330.793,651.662L340.385,652.734L350.304,653.746L360.531,654.697L371.046,655.585L381.829,656.408L392.861,657.166L404.119,657.855L415.582,658.475L427.229,659.026L439.037,659.505L450.984,659.911L463.047,660.245L475.204,660.506L487.43,660.692L499.703,660.804L512,660.841L524.297,660.804L536.57,660.692L548.796,660.506L560.953,660.245L573.016,659.911L584.963,659.505L596.771,659.026L608.418,658.475L619.881,657.855L631.139,657.166L642.171,656.408L652.954,655.585L663.469,654.697L673.696,653.746L683.615,652.734L693.207,651.662L702.454,650.534L711.339,649.35L719.844,648.114L727.954,646.827L735.652,645.492L742.925,644.111L749.759,642.688L756.139,641.224L762.055,639.724L767.495,638.188L772.449,636.622L776.907,635.026L780.86,633.405L784.302,631.762L787.225,630.099L789.625,628.42L791.496,626.729L792.835,625.027L793.534,623.627M212,520L212.286,521.821L213.142,523.639L214.567,525.45L216.558,527.25L219.111,529.037L222.222,530.806L225.885,532.555L230.092,534.28L234.836,535.978L240.108,537.645L245.897,539.279L252.192,540.876L258.983,542.433L266.254,543.948L273.994,545.417L282.187,546.838L290.817,548.207L299.868,549.523L309.323,550.783L319.164,551.984L329.372,553.124L339.927,554.201L350.81,555.213L362,556.158L373.475,557.034L385.215,557.84L397.195,558.574L409.394,559.234L421.788,559.82L434.354,560.329L447.068,560.762L459.906,561.118L472.842,561.395L485.853,561.593L498.914,561.712L512,561.752L525.086,561.712L538.147,561.593L551.158,561.395L564.094,561.118L576.932,560.762L589.646,560.329L602.212,559.82L614.606,559.234L626.805,558.574L638.785,557.84L650.525,557.034L662,556.158L673.19,555.213L684.073,554.201L694.628,553.124L704.836,551.984L714.677,550.783L724.132,549.523L733.183,548.207L741.813,546.838L750.006,545.417L757.746,543.948L765.017,542.433L771.808,540.876L778.103,539.279L783.892,537.645L789.164,535.978L793.908,534.28L798.115,532.555L801.778,530.806L804.889,529.037L807.442,527.25L809.433,525.45L810.858,523.639L811.714,521.821L812,520L812,520M230.466,416.373L230.361,416.681L230.092,418.393L230.361,420.104L231.165,421.812L232.504,423.514L234.375,425.205L236.775,426.884L239.698,428.547L243.14,430.19L247.093,431.811L251.551,433.407L256.505,434.974L261.945,436.509L267.861,438.01L274.241,439.473L281.075,440.896L288.348,442.277L296.046,443.612L304.156,444.899L312.661,446.135L321.546,447.319L330.793,448.447L340.385,449.519L350.304,450.531L360.531,451.482L371.046,452.37L381.829,453.193L392.861,453.951L404.119,454.64L415.582,455.26L427.229,455.811L439.037,456.29L450.984,456.696L463.047,457.03L475.204,457.291L487.43,457.477L499.703,457.589L512,457.626L524.297,457.589L536.57,457.477L548.796,457.291L560.953,457.03L573.016,456.696L584.963,456.29L596.771,455.811L608.418,455.26L619.881,454.64L631.139,453.951L642.171,453.193L652.954,452.37L663.469,451.482L673.696,450.531L683.615,449.519L693.207,448.447L702.454,447.319L711.339,446.135L719.844,444.899L727.954,443.612L735.652,442.277L742.925,440.896L749.759,439.473L756.139,438.01L762.055,436.509L767.495,434.974L772.449,433.407L776.907,431.811L780.86,430.19L784.302,428.547L787.225,426.884L789.625,425.205L791.496,423.514L792.835,421.812L793.639,420.104L793.908,418.393L793.639,416.681L793.534,416.373M283.809,325.246L283.061,326.253L282.405,327.645L282.187,329.04L282.405,330.436L283.061,331.828L284.153,333.215L285.678,334.594L287.634,335.963L290.017,337.318L292.823,338.658L296.046,339.98L299.68,341.28L303.718,342.557L308.153,343.809L312.976,345.032L318.177,346.225L323.748,347.386L329.677,348.511L335.953,349.599L342.564,350.648L349.497,351.656L356.74,352.621L364.279,353.541L372.099,354.415L380.184,355.24L388.521,356.015L397.093,356.739L405.884,357.41L414.877,358.028L424.054,358.59L433.399,359.095L442.894,359.544L452.52,359.934L462.259,360.266L472.093,360.538L482.003,360.751L491.97,360.903L501.976,360.994L512,361.024L522.024,360.994L532.03,360.903L541.997,360.751L551.907,360.538L561.741,360.266L571.48,359.934L581.106,359.544L590.601,359.095L599.946,358.59L609.123,358.028L618.116,357.41L626.907,356.739L635.479,356.015L643.816,355.24L651.901,354.415L659.721,353.541L667.26,352.621L674.503,351.656L681.436,350.648L688.047,349.599L694.323,348.511L700.252,347.386L705.823,346.225L711.024,345.032L715.847,343.809L720.282,342.557L724.32,341.28L727.954,339.98L731.177,338.658L733.983,337.318L736.366,335.963L738.322,334.594L739.847,333.215L740.939,331.828L741.595,330.436L741.813,329.04L741.595,327.645L740.939,326.253L740.191,325.246M366.538,257.625L365.556,258.202L364.279,259.096L363.283,259.996L362.571,260.901L362.143,261.81L362,262.721L362.143,263.631L362.571,264.54L363.283,265.446L364.279,266.346L365.556,267.239L367.111,268.124L368.942,268.998L371.046,269.861L373.418,270.71L376.054,271.543L378.948,272.36L382.096,273.159L385.491,273.937L389.127,274.695L392.997,275.429L397.093,276.14L401.408,276.824L405.934,277.482L410.661,278.112L415.582,278.713L420.686,279.283L425.964,279.821L431.405,280.327L437,280.8L442.738,281.238L448.607,281.641L454.597,282.008L460.697,282.338L466.894,282.631L473.177,282.885L479.534,283.102L485.953,283.28L492.421,283.418L498.927,283.517L505.457,283.577L512,283.597L518.543,283.577L525.073,283.517L531.579,283.418L538.047,283.28L544.466,283.102L550.823,282.885L557.106,282.631L563.303,282.338L569.403,282.008L575.393,281.641L581.262,281.238L587,280.8L592.595,280.327L598.036,279.821L603.314,279.283L608.418,278.713L613.339,278.112L618.066,277.482L622.592,276.824L626.907,276.14L631.003,275.429L634.873,274.695L638.509,273.937L641.904,273.159L645.052,272.36L647.946,271.543L650.582,270.71L652.954,269.861L655.058,268.998L656.889,268.124L658.444,267.239L659.721,266.346L660.717,265.446L661.429,264.54L661.857,263.631L662,262.721L661.857,261.81L661.429,260.901L660.717,259.996L659.721,259.096L658.444,258.202L657.462,257.625M480.549,221.653L480.287,221.681L478.514,221.879L476.805,222.088L475.164,222.306L473.592,222.535L472.093,222.773L470.671,223.019L469.327,223.274L468.064,223.537L466.885,223.808L465.792,224.085L464.786,224.369L463.871,224.658L463.047,224.953L462.317,225.253L461.681,225.556L461.14,225.864L460.697,226.174L460.351,226.487L460.104,226.801L459.955,227.117L459.906,227.433L459.955,227.749L460.104,228.065L460.351,228.379L460.697,228.692L461.14,229.002L461.681,229.309L462.317,229.613L463.047,229.913L463.871,230.207L464.786,230.497L465.792,230.781L466.885,231.058L468.064,231.328L469.327,231.591L470.671,231.847L472.093,232.093L473.592,232.331L475.164,232.56L476.805,232.778L478.514,232.987L480.287,233.185L482.12,233.372L484.01,233.548L485.953,233.712L487.945,233.864L489.984,234.004L492.064,234.131L494.183,234.246L496.335,234.347L498.517,234.436L500.725,234.511L502.954,234.573L505.2,234.621L507.46,234.655L509.728,234.676L512,234.683L514.272,234.676L516.54,234.655L518.8,234.621L521.046,234.573L523.275,234.511L525.483,234.436L527.665,234.347L529.817,234.246L531.936,234.131L534.016,234.004L536.055,233.864L538.047,233.712L539.99,233.548L541.88,233.372L543.713,233.185L545.486,232.987L547.195,232.778L548.836,232.56L550.408,232.331L551.907,232.093L553.329,231.847L554.673,231.591L555.936,231.328L557.115,231.058L558.208,230.781L559.214,230.497L560.129,230.207L560.953,229.913L561.683,229.613L562.319,229.309L562.86,229.002L563.303,228.692L563.649,228.379L563.896,228.065L564.045,227.749L564.094,227.433L564.045,227.117L563.896,226.801L563.649,226.487L563.303,226.174L562.86,225.864L562.319,225.556L561.683,225.253L560.953,224.953L560.129,224.658L559.214,224.369L558.208,224.085L557.115,223.808L555.936,223.537L554.673,223.274L553.329,223.019L551.907,222.773L550.408,222.535L548.836,222.306L547.195,222.088L545.486,221.879L543.713,221.681L543.451,221.653" fill="none" stroke="rgba(255,255,255,0.10)" stroke-width="2"/>
    <path d="M383.235,790.96L383.084,790.888L383.094,790.884L384.648,791.61L385.872,792.193L386.27,792.382L386.27,792.382ZM464.566,816.226L464.573,816.227L464.927,816.274L464.777,816.227L464.694,816.175L464.069,816.018L464.667,816.055L465.441,816.115L465.817,816.137L467.172,816.282L468.185,816.346L468.838,816.342L469.41,816.304L469.918,816.249L470.595,816.162L470.715,816.001L471.065,815.869L470.419,815.585L468.499,815.28L467.87,814.964L467.927,814.757L468.808,814.688L469.726,814.586L470.411,814.395L470.64,814.095L470.327,813.675L470.829,813.464L472.769,813.641L474.183,814.025L476.07,814.171L475.426,813.8L475.498,813.44L477.386,813.635L478.441,814.038L480.406,814.19L482.179,814.11L484.02,814.08L485.937,814.213L487.175,814.644L488.525,814.384L489.987,814.263L491.72,814.182L493.458,814.095L494.981,813.896L496.778,813.776L498.129,813.576L498.971,813.213L500.445,813.514L502.214,813.392L503.702,813.91L504.815,814.285L506.715,814.101L507.407,813.695L509.172,813.408L511.529,813.478L512.22,813.876L513.699,813.476L515.643,813.341L517.762,813.285L519.658,813.288L521.605,813.395L523.496,813.43L524.127,813.774L525.065,814.062L527.071,813.841L529.134,813.752L531.085,813.702L533.017,813.628L534.881,813.428L536.837,813.238L538.7,812.88L540.565,812.619L542.476,812.434L544.211,812.057L546.013,811.354L547.558,810.891L549.174,810.997L549.279,811.396L550.373,811.602L552.311,811.408L552.853,811.761L553.597,811.987L555.762,811.604L557.242,811.043L559.135,810.723L561.626,810.178L563.599,809.88L566.046,809.471L567.891,809.078L569.861,808.643L571.734,808.233L573.02,808.258L575.457,807.624L577.284,807.126L578.811,807.002L580.843,806.518L582.161,805.954L584.364,805.387L586.317,804.933L588.46,804.5L590.227,804.202L591.487,804.129L592.703,804.104L593.098,804.385L591.862,805.044L592.108,805.388L592.091,805.689L593.415,805.634L593.41,805.915L593.585,806.16L594.659,806.057L596.427,805.601L599.06,804.791L599.49,804.925L600.287,804.898L601.003,804.875L601.881,804.783L603.05,804.563L599.865,805.952L598.809,806.33L596.876,806.999L594.851,807.547L592.545,808.206L591.144,808.696L592.374,808.454L590.665,808.988L588.672,809.552L586.569,810.14L586.056,810.374L586.737,810.281L588.51,809.858L590.633,809.273L592.481,808.737L594.289,808.222L596.095,807.702L597.804,807.17L600.351,806.37L601.345,806.094L602.546,805.786L603.924,805.393L605.478,804.929L607.596,804.22L609.471,803.569L611.678,802.81L613.617,802.152L615.162,801.619L617.082,800.915L618.312,800.466L619.578,800.003L619.885,799.914L620.974,799.504L622.068,799.079L622.068,799.079L612.261,802.75L602.332,806.077L592.293,809.055L582.157,811.681L571.934,813.952L561.639,815.865L551.283,817.417L540.88,818.607L530.441,819.433L519.979,819.894L509.508,819.99L499.04,819.72L488.588,819.085L478.165,818.086L467.782,816.723ZM331.321,758.624L333.84,760.357L334.932,761.294L334.901,761.621L333.122,760.362L334.225,761.363L332.031,759.773L330.622,758.453L332.348,759.598ZM671.459,761.984L668.23,762.768L669.886,761.163L671.502,759.836L672.293,759.175L672.585,759.899L674.042,759.915L673.486,760.485ZM679.516,622.855L679.302,628.664L680.005,630.827L679.201,633.194L678.233,634.686L677.314,631.986L676.286,633.494L676.462,636.988L675.743,639.052L674.399,640.271L673.377,644.328L670.675,649.99L667.296,656.616L662.784,665.572L659.695,672.004L656.542,677.346L652.983,678.678L648.943,680.842L646.877,679.905L643.999,678.583L643.404,676.325L644.04,672.376L643.333,668.89L643.615,665.648L645.048,662.287L647.178,661.343L647.496,659.804L650.222,656.137L651.163,653.13L650.554,650.987L650.256,648.085L650.613,643.749L652.559,640.96L653.622,637.873L655.819,637.522L658.394,636.34L660.132,635.336L662.036,635.12L664.898,632.155L668.868,628.855L670.495,626.292L670.204,624.252L671.933,624.676L674.737,621.058L675.217,618.083L676.9,615.745L678.09,617.729L678.931,619.715ZM810.639,548.54L810.783,546.903L810.921,543.619L811.035,540.797L811.051,537.134L811.042,533.612L810.902,526.912L810.495,523.224L810.291,518.976L809.979,515.199L809.295,512.585L808.713,508.523L807.971,506.17L806.67,501.205L806.355,498.639L806.92,498.39L808.176,498.277L809.166,502.692L809.848,505.647L810.256,507.406L810.931,512.289L811.292,511.627L811.625,514.571L811.817,518.492L811.938,520.309L811.865,524.83L811.904,526.211L811.928,526.081L811.845,529.572L811.803,530.867L811.803,530.868L811.241,541.324ZM784.923,504.669L783.178,506.43L781.718,502.616L780.442,495.286L780.23,486.6L782.149,489.014L783.646,492.347L785.342,497.423L785.641,502.917ZM225.511,477.838L224.398,477.821L224.267,477.234L224.859,476.022L225.202,473.985L226.023,473.718L226.249,474.045ZM230.887,433.558L230.277,434.635L229.716,434.086L229.247,433.86L229.901,431.698L230.237,431.076L230.815,431.66L231.067,432.445ZM227.833,423.828L227.772,424.009L227.494,424.915L227.024,426.463L226.564,427.92L226.629,427.525L226.629,427.525L226.415,428.141L226.671,427.333L226.671,427.333ZM230.114,420.679L230.048,422.043L230.386,421.291L230.632,421.85L230.408,423.516L230.563,423.571L230.028,425.432L230.319,425.715L229.794,427.159L229.963,427.64L229.62,429.788L228.744,431.542L228.849,430.143L228.557,430.038L228.486,429.576L228.111,430.347L227.854,430.393L228.195,429.082L227.839,429.564L226.604,432.679L226.779,431.714L227.227,430.256L227.331,428.959L227.12,428.975L227.141,428.195L226.784,428.79L227.256,426.883L227.794,425.361L227.65,426.68L227.644,427.594L228.091,426.75L228.728,424.305L229.39,422.435L229.56,421.24L230.081,420.045ZM235.32,404.034L234.772,405.359L233.376,408.901L232.414,411.501L232.402,411.661L231.973,413.046L231.45,414.365L231.356,415.065L230.634,417.572L230.204,418.628L229.956,418.791L229.886,418.569L230.082,417.718L230.161,417.207L231.025,414.96L231.583,413.419L231.821,412.764L231.821,412.764ZM237.694,398.618L237.646,398.688L238.931,395.803L239.657,394.193L240.994,391.362L240.831,391.743L238.933,395.875ZM244.033,385.233L243.958,385.266L244.847,383.511L244.892,383.448L244.648,384.019ZM243.895,385.72L242.28,388.905L242.605,388.195L243.813,385.779L244.838,383.661L245.108,383.136ZM593.66,378.72L591.36,380.816L591.85,381.673L592.046,382.044L588.246,384.129L586.119,383.611L584.816,381.787L586.723,381.529L586.997,381.493L587.358,380.345L590.289,380.273ZM548.852,380.134L551.315,381.645L554.558,381.3L557.725,381.551L557.718,382.363L559.93,381.743L559.575,383.135L553.544,383.686L553.506,382.912L548.256,382.121ZM514.145,368.955L512.672,372.531L513.29,373.945L512.422,376.297L509.213,374.571L507.098,374.07L501.355,371.727L501.992,369.394L506.802,369.83L511.02,369.347ZM489.234,355.53L491.358,358.679L490.388,364.557L488.577,364.244L486.818,365.715L485.387,364.507L485.693,359.137L485.013,356.602L487.157,356.86ZM490.914,351.443L489.364,354.783L487.668,353.871L487.036,350.932L487.955,349.345L490.558,347.737ZM309.705,309.973L309.74,310.822L310.564,311.176L308.66,312.45L308.138,312.507L308.787,310.316L309.872,308.965L311.288,308.022ZM320.781,301.672L320.336,301.511L320.632,299.806L321.883,297.741L322.425,297.615L322.327,299.085L321.464,301.016ZM332.147,298.701L328.102,301.466L330.08,300.573L330.016,301.619L328.305,302.695L328.294,304.067L329.748,303.403L329.824,304.945L326.743,307.452L328.256,307.145L326.5,309.134L324.679,311.562L320.987,314.653L320.257,314.583L320.071,313.572L323.286,310.631L323.396,310.036L318.84,312.711L318.262,312.298L320.792,310.892L320.561,309.548L319.16,309.265L317.303,308.24L318.262,307.091L320.177,306.111L320.779,304.935L323.869,303.175L330.993,298.06L333.823,296.375L336.07,295.569L336.4,295.918L335.143,296.761ZM443.844,308.8L437.622,310.692L433.695,309.868L437.852,306.162L438.135,302.38L443.291,299.819L446.167,298.294L448.557,298.282L450.615,300.632L448.038,303.013L447.436,305.632ZM505.165,298.41L503.223,301.276L500.234,299.241L499.946,297.767L504.329,296.645ZM463.736,287.002L459.402,290.469L462.303,290.135L465.218,290.281L463.463,293.01L459.792,295.991L462.595,296.342L463.795,300.99L465.608,301.644L466.184,305.84L466.63,307.321L470.163,308.157L469.168,310.527L467.28,311.571L468.04,313.565L464.648,315.465L460.389,315.265L454.652,316.096L453.412,315.279L450.735,316.974L447.959,316.397L445.221,317.758L443.824,316.901L449.85,313.124L452.91,312.443L448.305,311.578L448.003,310.045L451.604,309.05L450.712,306.973L452.189,304.605L456.463,305.146L457.646,303.059L456.501,300.709L453.284,299.914L453.008,298.922L454.682,297.402L454.167,296.392L451.969,297.967L453.269,294.608L452.703,292.789L455.294,289.352L458.564,286.766L460.499,287.129ZM372.278,255.859L369.937,256.981L370.419,256.625L371.848,255.824L372.157,255.676L373.456,255.099L373.272,255.289ZM375.455,253.682L373.285,254.569L373.638,254.28L374.961,253.581L376.818,252.773L376.341,253.247ZM390.278,246.297L388.153,247.245L388.685,247.083L387.251,247.8L385.286,248.856L383.502,249.877L381.251,250.943L381.434,251.004L379.724,251.969L378.455,252.389L380.002,251.35L382.275,250.184L380.147,251.033L378.332,251.722L381.173,250.32L381.363,250.099L383.224,249.308L386.813,247.687L390.952,245.916ZM452.971,262.166L451.016,263.864L451.578,265.893L447.279,267.824L439.953,269.285L437.804,269.648L435.664,268.989L431.353,267.565L434.397,266.526L431.963,264.769L435.614,264.582L436.385,263.779L433.492,262.767L436.575,261.179L439.522,261.067L440.267,263.127L444.407,261.941L445.883,262.896L450.152,261.734ZM395.515,245.989L395.327,245.773L397.707,244.738L400.393,243.774L401.026,243.757L399.671,244.5L397.596,245.341L396.925,245.584ZM638.423,349.974L641.454,352.874L643.074,352.931L644.598,353.999L642.063,354.607L642.952,358.057L643.039,359.651L642.23,360.798L643.217,362.988L645.632,366.177L649.244,366.798L652.525,368.815L657.638,369.098L662.283,367.35L662.133,366.26L660.116,363.183L658.443,358.513L655.274,357.303L654.667,354.227L652.455,354.205L651.391,350.49L654.844,351.222L656.846,349.542L653.317,347.229L651.189,344.901L649.282,346.254L650.53,349.413L648.185,346.751L647.499,345.734L647.358,343.894L646.021,342.489L641.737,341.428L638.45,337.834L636.218,336.954L635.43,335.625L638.575,335.72L637.094,332.718L639.238,331.798L642.128,332.129L640.388,328.144L638.428,325.74L635.695,326.232L632.701,325.517L630.314,327.604L627.999,328.71L627.867,331.226L625.24,332.162L624.174,336.662L628.902,340.351L629.892,343.204L635.695,347.88ZM790.499,408.473L790.63,408.803L792.513,413.835L794.314,418.993L795.536,422.535L797.222,427.188L799.106,432.994L799.146,433.125L799.146,433.125L802.003,443.199L804.506,453.367L806.654,463.616L807.815,470.063L808.625,475.459L808.105,472.444L807.515,468.772L806.97,466.41L806.747,466.26L806.171,463.9L804.979,459.005L804.234,457.316L803.97,458.018L803.099,453.937L802.756,454.586L803.998,460.219L805.273,468.042L805.939,472.79L806.604,476.454L806.95,476.143L807.855,480.535L808.549,484.864L809.135,487.408L809.409,487.574L809.862,489.869L809.972,490.192L810.418,492.874L810.804,496.033L811.09,499.475L811.239,501.906L811.365,503.614L811.542,506.621L811.651,507.793L811.853,512.095L811.896,513.854L811.831,514.721L811.554,511.568L811.057,508.315L810.878,505.76L810.447,502.718L810.064,498.535L809.663,495.978L809.333,492.131L808.997,490.106L808.581,488.41L808.18,485.985L807.513,483.457L806.889,481.368L807.223,484.505L806.701,481.786L806.278,478.499L805.635,473.375L804.887,469.643L804.3,465.518L803.48,462.741L802.293,457.147L801.428,454.81L799.697,448.997L797.832,442.782L796.319,438.938L796.597,441.905L796.718,446.262L796.105,446.199L795.207,445.453L793.7,439.013L792.038,434.487L789.383,429.309L788.884,427.447L788.078,427.207L785.894,423.678L784.633,421.303L783.619,418.852L782.494,416.637L780.892,414.083L779.736,414.495L780.646,416.434L781.326,419.352L780.411,418.638L780.567,419.627L779.997,419.272L779.315,419.087L779.812,420.965L778.852,421.349L777.434,423.159L778.872,426.826L779.08,430.089L777.874,434.361L777.8,440.952L777.38,444.603L776.439,448.53L777.073,450.855L776.433,452.423L775.087,454.817L774.181,455.381L774.509,459.441L776.5,465.942L777.531,470.148L777.594,475.291L779.152,484.039L778.048,484.628L777.645,488.852L778.582,490.362L776.707,492.412L776.398,496.149L775.63,497.898L772.699,493.662L770.486,486.715L768.658,481.752L767.347,479.536L765.063,474.92L763.117,468.656L761.976,465.566L757.981,459.114L754.373,449.533L751.778,443.261L749.967,437.188L747.982,432.636L745.043,436.441L742.921,436.247L737.363,430.936L738.129,428.877L736.656,427.096L731.905,423.546L729.361,422.685L727.263,419.311L723.667,415.997L718.437,417.851L713.395,418.746L709.091,420.116L702.364,419.515L698.312,418.884L694.209,418.759L690.817,412.95L688.87,412.292L686.444,413.494L683.58,416.28L678.657,415.16L673.812,411.818L669.837,410.809L665.954,406.465L661.22,400.327L659.468,401.298L656.593,399.937L655.768,401.939L653.444,401.909L654.866,403.959L654.844,405.091L657.117,408.619L659.806,412.674L662.012,413.609L663.137,415.258L666.327,417.059L667.103,419.064L667.172,420.74L668.1,422.353L669.574,423.622L670.512,425.194L671.397,426.353L670.202,422.778L670.535,420.089L671.427,419.451L673.001,420.882L673.854,423.754L673.789,426.756L675.013,428.579L675.625,428.265L676.128,429.612L678.9,428.516L682.05,428.303L684.346,428.203L685.937,424.562L687.723,421.082L689.071,417.785L689.57,415.997L690.146,416.364L690.446,418.427L690.249,419.381L691.902,423.203L694.493,426.384L696.99,427.93L699.762,428.252L702.08,428.88L704.462,431.522L705.865,433.048L707.283,433.511L707.585,434.628L707.15,437.78L706.977,439.264L705.923,441.069L705.475,444.688L703.788,444.636L703.334,445.937L703.378,448.578L704.611,451.909L704.412,452.572L702.725,452.769L700.835,454.959L701.006,457.487L700.385,458.67L698.033,458.91L696.806,460.375L697.229,462.441L695.655,464.079L693.435,463.837L691.146,465.857L689.385,466.343L686.758,468.035L686.374,470.406L686.579,472.166L682.891,474.757L676.663,477.82L673.413,481.826L671.589,482.278L670.278,482.095L668.045,484.468L665.418,485.699L661.8,486.28L660.732,486.67L659.927,488.12L658.813,488.593L658.292,489.965L656.077,490.026L654.726,490.842L651.604,490.815L650.115,487.867L649.928,485.02L649.011,483.547L647.687,479.779L646.139,477.745L647.009,477.425L646.245,475.097L646.663,474.061L646.175,471.83L645.302,469.665L643.748,468.22L643.111,466.191L640.564,464.51L637.58,460.378L635.702,456.292L632.104,452.991L629.991,452.284L626.306,447.628L625.247,444.137L624.958,441.133L621.517,435.711L619.131,433.875L616.581,432.98L614.648,430.197L614.697,429.061L613.044,426.545L611.58,425.515L609.25,421.92L605.899,418.091L603.111,414.832L600.941,414.967L601.167,412.243L601.056,410.534L601.235,408.565L600.969,407.866L600.111,409.883L599.812,413.611L599.059,416.222L598.173,417.127L596.45,415.609L594.133,413.521L589.913,406.682L589.53,407.137L592.147,412.195L595.618,416.995L600.145,424.523L602.188,427.141L604.058,429.885L608.896,435.216L608.139,436.138L608.758,439.399L614.651,443.644L615.596,444.636L617.766,449.532L616.898,450.509L618.255,455.717L620.716,461.737L622.622,462.895L625.363,464.649L628.743,470.437L630.568,475.102L633.364,477.464L640.143,481.941L642.988,484.717L645.776,487.538L647.382,489.221L649.756,490.625L650.992,492.156L651.064,494.325L648.611,495.767L650.687,497.043L652.258,497.893L653.334,499.979L655.558,502.011L657.789,501.854L661.866,500.183L666.595,499.164L670.272,497.207L672.381,496.671L673.81,495.58L676.221,495.179L677.57,494.945L679.431,493.984L681.594,493.248L683.363,491.275L684.928,491.099L685.193,492.523L685.176,495.588L685.497,498.317L684.814,500.292L684.196,506.044L682.665,512.063L680.519,518.987L677.276,526.985L673.817,533.161L668.843,540.729L664.452,545.326L657.738,551.025L653.475,555.305L648.38,561.944L647.279,564.751L646.203,566.049L642.878,568.336L641.686,570.56L639.911,571.061L639.149,574.728L637.577,576.895L636.553,580.364L634.58,582.173L632.143,588.595L632.288,591.46L635.239,593.125L635.307,594.429L633.845,597.565L634.028,599.085L633.575,601.508L635.014,604.55L636.594,609.361L638.204,610.339L638.773,612.522L638.152,617.467L638.299,621.759L637.661,629.387L638.189,631.717L636.407,635.263L634.214,638.718L630.924,641.87L626.504,643.945L621.023,646.558L615.168,651.91L613.276,652.863L609.612,656.353L607.555,657.521L606.738,660.841L608.441,664.219L608.939,666.851L608.8,668.211L609.636,667.946L608.814,672.388L607.748,674.509L608.673,675.227L607.701,677.12L605.567,678.796L601.624,680.47L595.837,683.108L593.606,684.82L593.702,686.632L594.798,686.875L594.036,689.173L592.389,692.352L591.268,695.913L589.793,697.871L586.424,700.114L585.467,700.757L583.245,702.943L581.671,705.109L578.695,708.142L573.108,712.485L569.682,714.987L566.172,716.893L561.462,718.55L559.261,718.815L558.556,719.915L556.034,719.4L553.81,720.199L549.25,719.55L546.596,720.078L544.834,719.907L540.26,721.518L536.527,722.189L533.78,723.679L531.815,723.793L530.088,722.443L528.634,722.386L526.851,720.669L526.624,721.21L526.092,720.168L526.22,717.873L524.901,715.233L526.341,714.494L526.35,711.422L523.547,707.644L521.378,704.172L521.361,704.165L518.188,698.759L514.782,695.577L512.988,692.461L511.947,688.267L510.789,685.113L509.171,678.319L509.023,672.963L508.4,670.5L506.499,668.629L503.932,664.84L501.28,659.302L500.17,656.376L496.057,651.775L495.684,648.154L495.16,645.162L495.773,640.973L497.448,636.584L497.693,634.508L499.284,630.147L500.473,628.148L503.367,624.965L505.011,622.784L505.529,619.131L505.238,616.323L503.692,614.545L502.302,611.523L501.021,608.516L501.294,607.483L502.866,605.497L501.275,600.636L500.193,597.244L497.576,594.021L498.058,593.036L497.32,591.457L495.914,587.62L491.611,582.167L486.24,576.933L482.772,572.638L479.589,567.262L479.755,565.549L480.896,563.91L482.152,560.155L483.206,556.319L482.233,555.514L484.05,549.698L484.818,545.587L482.814,542.116L480.444,541.198L479.415,538.839L478.095,538.067L478.164,536.626L472.757,538.418L470.804,538.098L468.801,539.235L464.677,539.032L461.957,535.696L460.333,531.876L456.763,528.331L452.919,528.297L448.426,528.157L444.226,528.636L440.116,529.615L432.13,532.388L429.304,534.075L424.765,535.401L420.359,533.722L418.108,533.681L414.686,532.493L411.531,532.401L405.707,533.015L402.281,534.335L397.434,535.984L396.501,535.797L395.235,535.767L390.387,532.976L386.231,528.725L382.34,525.604L379.362,522.019L378.127,521.543L374.914,519.201L372.701,516.232L372.019,514.263L371.732,510.358L369.972,507.123L368.382,504.939L367.288,504.179L366.263,503.049L365.955,500.705L365.403,499.506L364.202,498.548L362.042,496.176L360.223,495.678L359.382,494.132L359.483,493.341L358.283,492.129L358.126,490.987L357.874,486.943L358.719,484.691L357.454,480.502L355.578,478.476L357.591,477.662L360.171,474.213L361.577,471.647L361.623,468.844L363.214,466.414L364.512,461.621L364.907,456.537L364.839,453.957L365.724,451.452L365.089,448.944L363.325,446.569L363.927,444.453L364.595,442.129L366.452,440.891L368.347,438.384L368.438,436.662L370.618,433.248L373.605,430.262L375.159,429.573L376.895,426.766L377.578,424.131L379.751,421.196L382.894,419.606L386.665,414.796L389.242,413.008L393.199,412.737L397.207,409.64L399.567,408.479L403.925,404.667L404.276,398.627L406.806,394.631L407.953,392.163L411.322,389.139L415.86,387.233L419.299,385.47L423.115,380.8L425.031,378.037L427.963,378.206L429.932,380.289L433.835,380.153L437.838,381.371L439.608,381.496L444.012,379.129L448.571,378.505L451.473,376.698L455.645,375.436L462.712,374.84L469.559,374.652L471.561,375.377L475.656,373.668L480.078,373.718L481.67,374.809L484.535,374.586L489.182,372.804L492.06,373.389L491.792,375.704L495.427,374.059L495.686,374.938L493.479,377.164L493.338,379.303L494.745,380.47L494.005,384.489L491.056,386.811L491.748,389.383L493.978,389.487L494.979,391.744L496.618,392.497L501.717,394.172L503.578,393.772L507.24,394.573L513.082,396.708L515.184,400.97L519.222,401.887L525.581,403.875L530.46,406.232L532.613,404.955L534.657,402.708L533.435,399.044L534.703,396.696L537.743,394.421L540.727,393.732L546.698,394.601L548.371,396.7L550.013,396.682L551.474,397.469L555.882,397.926L557.115,399.488L562.926,399.252L567.291,400.394L571.793,401.678L573.919,402.359L577.056,400.71L578.63,399.273L582.362,398.729L585.514,399.212L587.061,401.542L587.804,399.932L591.412,400.918L594.787,401.032L596.656,399.722L597.572,398.092L597.232,397.831L597.915,395.549L598.032,391.926L598.381,390.705L598.489,390.651L599.131,386.741L600.407,383.347L600.441,383.178L599.244,379.651L599.767,377.702L597.815,375.696L598.883,373.898L596.59,374.419L593.035,373.537L590.899,376.304L584.924,377.097L581.17,374.775L576.784,374.796L576.194,376.734L573.47,377.392L569.122,375.083L564.674,375.306L561.581,370.847L558.263,368.418L559.703,364.868L556.869,362.799L560.574,358.434L566.525,358.069L567.513,354.681L574.878,354.983L578.752,351.974L582.774,350.557L588.813,350.166L596.064,352.87L601.806,354.251L605.789,353.322L609,353.512L612.386,350.965L612.248,349.093L610.3,346.239L607.735,344.808L605.645,344.448L603.911,343.236L598.265,339.965L593.799,338.624L590.016,336.357L592.272,335.553L593.852,331.966L591.4,330.468L595.632,328.53L595.195,327.66L592.522,328.483L590.015,328.964L588.27,330.394L585.209,330.777L582.793,332.442L583.791,334.983L585.787,335.887L589.214,335.455L589.019,336.96L585.461,337.883L581.411,340.533L579.208,339.768L579.435,337.779L575.257,336.739L575.673,335.92L578.601,334.396L577.335,333.505L571.674,332.71L571.029,331.196L567.967,331.828L567.234,334.127L565.215,337.282L565.533,338.348L563.987,339.314L562.813,338.956L562.836,344.065L561.264,345.89L560.472,348.99L562.129,351.412L562.884,353.071L566.483,354.36L565.984,355.456L561.459,355.85L560.042,357.252L557.157,359.727L555.625,357.707L555.532,356.798L553.146,356.734L551.055,356.369L546.47,357.623L549.491,360.043L547.57,360.808L545.37,360.855L543.031,358.619L542.391,359.605L543.549,362.24L545.772,364.293L544.355,365.309L546.827,367.333L548.971,368.596L549.316,371.157L545.403,370.03L546.849,372.329L544.285,372.859L546.237,376.868L543.477,376.976L539.887,375.037L538.05,371.414L537.095,368.41L535.356,366.358L533.093,363.828L532.746,362.563L532.032,362.262L531.896,361.284L529.59,359.816L529.124,357.719L529.271,354.724L529.721,353.36L529.034,352.682L528.189,352.353L527.021,350.955L525.308,350.107L521.627,348.544L519.361,347.011L515.853,345.751L512.66,342.632L513.414,342.317L511.704,340.552L511.639,339.134L509.264,338.475L508.107,340.277L507.039,338.872L507.149,337.427L507.282,337.364L508.107,336.987L505.211,336.374L502.178,337.833L502.292,339.904L501.789,341.094L502.93,343.25L506.415,345.407L508.276,348.948L512.559,352.434L515.6,352.408L516.569,353.363L515.483,354.236L519.034,355.801L521.972,357.116L525.464,359.39L525.918,360.218L525.24,361.81L522.938,359.754L519.442,359.047L517.834,361.921L520.776,363.561L520.358,365.906L518.663,366.18L516.544,370.054L514.824,370.411L514.827,369.023L515.644,366.6L516.512,365.64L514.905,363.052L513.658,360.809L511.998,360.255L510.825,358.346L508.273,357.544L506.594,355.77L503.682,355.476L500.689,353.484L497.272,350.635L494.806,348.124L493.921,343.895L492.093,343.384L489.174,341.948L487.403,342.493L485.034,344.419L483.447,344.701L479.746,347.043L472.486,345.715L466.818,346.952L465.942,349.517L465.722,352.039L461.602,354.823L456.517,355.583L455.888,357.047L453.039,359.4L450.832,362.957L451.869,365.572L449.211,367.487L447.79,370.391L444.598,371.176L441.059,374.567L435.978,374.403L432.206,374.137L429.353,375.633L427.436,377.288L425.584,376.805L424.496,375.182L424.04,372.495L420.609,371.584L418.738,372.671L416.888,371.911L414.775,372.291L416.353,368.784L416.798,365.999L415.246,365.478L414.858,363.727L416.044,360.842L418.013,359.326L418.831,357.561L420.418,354.978L420.925,353.132L420.704,351.533L421.03,350.063L422.226,347.027L421.422,345.086L427.394,342.34L431.432,343.349L436.194,343.575L439.792,344.49L442.831,344.41L448.65,344.807L451.15,342.351L453.897,334.091L451.48,329.668L449.572,327.521L444.964,325.739L445.585,322.84L450.093,322.183L455.311,323.438L455.569,318.961L458.167,320.762L466.572,318.008L468.324,314.893L471.314,314.215L474.045,313.539L475.913,312.546L479.809,307.121L484.323,305.685L486.867,305.843L487.589,305.081L490.184,304.93L490.649,305.745L492.966,303.981L492.451,302.61L492.583,300.573L491.654,298.582L492.103,295.006L492.716,294.084L493.685,293.063L496.195,292.891L497.302,291.963L499.652,291.03L499.386,292.779L498.433,293.884L498.673,294.857L500.188,295.396L499.357,296.704L498.525,296.316L496.145,298.817L496.768,300.559L496.665,301.942L499.654,302.818L499.514,304.106L502.685,303.451L504.454,302.471L507.841,303.915L509.279,305.084L511.39,304.013L516.146,302.335L519.907,301.1L522.954,301.684L523.249,302.56L526.184,302.572L526.712,300.984L530.695,299.775L529.681,296.818L529.437,294.201L530.516,292.029L532.958,290.825L535.637,293.327L537.885,293.21L537.875,290.592L537.762,288.605L536.856,289.051L534.899,287.905L534.291,286.013L537.43,285.034L540.605,284.478L543.572,284.932L546.228,284.756L548.558,282.874L545.408,281.452L540.906,281.842L536.705,283.126L532.632,283.896L530.807,282.175L528.154,281.167L528.208,278.079L526.567,275.329L527.405,273.561L529.15,271.666L533.507,268.425L534.784,267.793L534.206,266.606L530.878,265.362L527.419,266.219L525.709,268.223L526.37,269.971L523.112,272.371L518.823,274.988L517.322,279.327L519.27,281.535L521.882,283.289L519.743,286.981L516.97,287.769L516.121,293.437L514.574,296.69L511.034,296.356L509.323,299.139L505.882,299.289L505.099,295.965L502.955,292.038L501.254,287.28L499.66,285.245L493.84,288.992L490.063,289.709L486.637,287.93L486.491,284.385L487.5,277.083L490.207,275.175L496.943,272.779L501.925,269.822L506.347,265.901L511.529,260.688L514.748,258.727L519.55,255.529L523.26,254.403L526.183,254.48L528.174,252.438L531.266,252.463L534.035,251.903L540.16,253.449L538.327,254.178L541.061,255.638L542.361,254.709L546.127,256.069L551.312,256.413L560.154,258.864L562.526,259.997L564.056,261.731L563.061,263.274L560.424,264.19L550.378,262.609L549.13,263.017L553.523,264.853L556.192,269.001L559.44,269.731L561.558,270.385L560.975,268.979L558.885,267.789L559.597,266.691L565.713,268.144L566.937,267.346L564.118,265.397L566.535,262.445L568.372,262.475L570.905,263.276L570.353,261.368L567.473,259.929L566.925,258.333L564.221,256.867L569.674,257.296L572.048,258.627L570.204,259.124L571.58,260.555L573.816,261.338L575.963,260.536L574.701,258.857L576.83,257.33L579.683,254.668L580.938,254.661L581.334,256.3L583.523,256.342L583.515,255.384L586.134,254.987L586.817,253.731L590.43,254.952L589.647,253.171L586.256,252.019L585.771,251.173L590.515,251.313L593.345,251.755L601.991,253.637L600.699,252.282L597.48,251.294L596.619,250.825L594.886,250.851L593.42,249.733L589.806,248.144L588.533,247.47L586.822,245.26L583.771,243.345L583.634,242.837L586.994,242.87L589.513,243.904L592.072,245.7L593.973,246.23L597.187,247.618L602.65,250.629L606.297,251.754L608.623,253.385L612.216,257.242L614.127,257.322L613.112,256.345L613.264,255.46L611.493,254.221L610.383,252.908L607.422,251.749L605.093,250.171L603.699,250.234L601.143,249.075L597.632,246.779L593.039,245.379L591.676,243.698L588.419,242.38L588.712,242.245L591.528,243.199L595.388,245.166L597.057,245.314L593.555,243.98L593.102,242.891L594.338,242.379L598.157,243.077L593.785,241.702L588.858,239.808L588.954,239.134L590.447,238.754L590.868,238.123L588.001,237.42L585.354,236.171L585.681,235.924L583.958,234.837L584.091,234.182L582.817,233.738L582.951,233.158L584.238,233.322L581.91,232.228L582.199,231.938L580.029,231.352L577.925,230.684L575.918,229.842L577.563,229.934L578.836,230.434L579.574,230.24L582.079,230.77L580.796,230.333L580.573,229.859L582.696,230.028L584.421,230.316L587.074,230.974L588.772,231.54L591.965,232.753L593.542,233.298L594.091,233.242L595.114,233.289L593.996,232.853L597.077,233.621L595.693,233.176L594.515,232.643L594.324,232.215L596.512,232.781L595.456,232.124L591.794,231.146L591.584,230.949L590.707,230.636L592.207,230.968L594.844,231.683L597.134,232.35L599.468,233.034L599.468,233.034L609.43,236.262L619.273,239.835L628.985,243.749L638.555,248L647.971,252.583L657.22,257.491L666.293,262.719L675.178,268.26L683.865,274.109L692.341,280.256L700.598,286.696L708.626,293.42L716.413,300.421L723.952,307.688L731.233,315.215L738.246,322.99L744.984,331.006L751.438,339.252L757.6,347.719L763.463,356.395L769.019,365.271L774.263,374.335L779.186,383.576L783.785,392.984L788.052,402.547ZM417.439,235.293L416.329,235.664L415.108,236.08L414.041,236.447L411.888,237.202L411.888,237.202L410.797,237.586L410.797,237.586ZM347.599,269.057L346.193,269.995L343.831,271.615L342.8,272.457L341.94,273.187L338.336,275.644L334.002,278.782L329.104,282.536L324.746,286.205L325.872,285.517L329.986,282.523L336.722,277.466L339.124,275.603L340.781,274.9L343.653,273.322L346.626,271.553L349.563,269.638L353.383,267.032L356.908,264.547L361.459,262.248L365.623,259.791L372.84,255.87L373.834,255.556L372.457,256.783L372.002,257.366L373.245,257.012L371.74,258.149L369.208,260.012L367.477,261.098L367.485,261.918L363.663,264.092L358.066,267.609L357.638,268.379L355.268,270.292L358.278,269.285L363.595,266.605L365.97,265.593L362.384,268.297L357.516,272.369L353.051,276.294L350.11,278.015L348.667,280.254L346.973,282.383L347.245,283.827L346.519,285.098L343.471,287.979L343.705,288.727L342.614,290.13L338.27,293.905L336.043,294.867L333.949,295.75L330.977,296.244L326.648,298.513L324.629,298.309L323.945,296.607L323.067,295.896L322.243,295.657L318.996,297.722L316.71,298.652L311.05,302.585L307.193,305.3L308.048,305.134L313.653,301.262L317.842,299.349L319.051,299.706L317.69,301.84L314.513,303.769L310.608,307.798L307.994,310.72L307.066,313.215L308.92,313.491L313.931,309.82L311.316,312.535L310.599,314.202L307.086,316.053L303.119,317.188L300.94,318.218L297.618,320.4L297.42,319.718L300.441,316.478L304.536,314.256L303.416,313.567L302.367,313.456L301.252,314.772L298.97,316.044L297.284,316.814L295.839,317.384L293.323,319.571L292.698,320.139L290.822,322.174L289.066,324.412L289.111,324.735L290.351,323.254L289.678,324.278L288.656,325.354L287.877,325.623L287.812,325.282L287.026,325.57L286.769,325.524L286.503,325.397L285.41,326.076L286.261,326.145L285.669,327.053L284.417,327.463L284.353,327.117L284.771,326.653L283.806,327.58L283.669,327.925L281.236,330.657L278.658,333.337L279.506,332.261L279.681,331.926L280.516,330.745L278.728,333.021L278.135,333.879L276.907,335.418L275.652,336.82L273.126,339.771L273.261,339.551L275.414,336.94L276.687,335.089L279.414,331.676L278.014,333.304L275.929,335.997L276.485,335.031L275.391,336.689L272.36,340.621L272.119,341.074L271.031,342.567L267.94,346.837L265.749,349.603L265.014,350.241L263.426,352.346L263.364,352.319L262.447,353.587L261.525,354.951L260.276,356.798L260.276,356.798L266.125,348.112L272.274,339.636L278.714,331.379L285.439,323.353L292.44,315.566L299.708,308.028L307.236,300.748L315.012,293.735L323.029,286.998L331.275,280.545L339.742,274.384ZM215.886,471.869L216.027,471.023L216.086,470.772L216.374,469.093L217.149,464.907L217.596,462.956L217.638,463.311L217.855,462.309L217.854,463.291L218.518,461.286L218.848,460.43L219.511,458.325L219.55,458.885L219.345,460.412L218.915,461.986L218.657,463.162L218.36,463.338L217.994,465.883L217.483,468.544L216.822,471.194L216.246,475.53L216.436,475.511L217.136,471.969L217.351,469.947L218.061,466.048L218.945,464.857L219.38,462.364L219.874,461.012L219.293,464.842L219.639,465.418L219.45,468.729L219.155,470.444L219.728,471.133L220.615,471.362L220.661,474.055L221.216,475.231L222.02,474.028L222.27,472.746L223.576,473.312L224.927,474.072L223.689,474.997L223.641,477.66L224.504,478.601L225.016,481.661L224.588,485.896L225.28,486.144L225.632,487.63L226.285,489.983L226.739,493.777L226.463,496.457L227.015,496.842L227.56,499.744L227.994,501.812L229.868,503.68L230.143,502.815L231.593,502.991L233.415,505.115L234.006,505.917L235.313,507.64L237.084,512.733L237.276,514.97L238.005,514.952L238.347,517.991L239.14,527.441L240.29,528.648L240.267,532.25L238.586,536.03L239.256,537.798L243.242,539.768L243.386,544.991L245.13,542.084L248.22,544.752L252.536,548.972L253.906,552.305L253.581,555.062L256.653,554.197L262.232,558.124L266.623,558.822L271.344,563.96L275.72,570.457L278.306,572.372L281.119,573.061L282.445,574.876L284.119,581.563L284.971,584.738L284.591,592.896L283.333,595.898L279.826,602.092L278.773,607.373L277.288,611.263L276.553,611.213L276.431,614.692L278.662,623.924L279.691,631.24L280.221,634.358L279.824,636.071L281.172,642.347L280.274,647.937L281.446,652.672L279.981,654.231L280.379,656.882L277.559,656.251L274.32,657.124L273.443,658.768L271.382,659.462L270.279,662.413L270.451,666.423L271.691,669.7L273.205,672.267L275.027,676.648L275.659,678.673L275.517,680.682L277.6,687.673L277.987,690.558L278,692.161L279.716,695.908L280.168,697.918L281.198,700.283L281.036,701.937L279.405,700.7L278.943,700.832L276.485,698.537L275.692,698.28L273.368,695.621L274.754,697.757L278.812,702.022L280.641,704.766L282.732,706.877L284.118,708.817L286.796,713.382L286.743,714.68L285.319,714.396L283.977,713.397L286.088,715.85L288.35,718.641L290.182,720.679L290.841,721.699L290.488,721.678L288.546,719.761L289.163,720.556L292.657,724.403L294.172,725.892L293.489,725.003L295.51,727.101L295.911,727.769L297.557,729.643L301.073,733.236L302.871,735.038L302.34,734.571L302.973,735.193L302.973,735.192L295.59,727.766L288.471,720.087L281.625,712.164L275.058,704.007L268.781,695.626L262.8,687.031L257.122,678.232L251.755,669.241L246.706,660.067L245.828,658.392L242.443,651.664L238.036,642.14L233.695,631.692L230.665,623.734L228.181,616.717L226.889,613.196L226.216,611.117L225.076,607.604L225.076,607.603L222.193,597.536L219.664,587.375L217.49,577.132L215.676,566.819L214.222,556.448L213.132,546.034L212.405,535.588L212.044,525.123L212.048,514.651L212.417,504.186L213.151,493.741L214.25,483.327L215.711,472.958ZM310.12,741.911L311.015,742.711L314.207,745.562L314.207,745.561ZM407.108,238.935L406.477,239.174L410.808,237.611L414.318,236.368L416.925,235.473L421.957,233.869L424.631,233.111L423.158,233.616L420.547,234.466L414.53,236.476L412.687,237.038L410.768,237.819L410.768,237.819L405.956,239.532L409.007,238.543L405.423,239.943L402.045,241.175L398.428,242.675L401.424,241.628L405.282,240.28L410.545,238.425L409.74,238.903L408.634,239.522L405.922,240.727L403.501,241.632L401.087,242.409L398.35,243.605L396.038,244.506L393.222,245.318L392.951,245.221L394.759,244.335L392.512,245.233L388.99,246.639L387.101,247.448L384.569,248.508L385.07,248.205L383.636,248.855L380.751,250.234L380.788,250.216L380.788,250.216L390.283,245.801L399.927,241.72ZM424.824,235.462L423.44,235.896L423.635,235.624L423.828,235.36L423.269,235.326L423.608,235.174L426.406,234.175L428.2,233.679L428.462,233.685L427.681,234.302ZM426.844,233.238L423.542,234.275L427.265,233.341L428.737,233.299L423.294,235.124L420.065,236.073L421.248,236.068L423.146,235.672L420.516,236.937L418.143,238.012L415.977,238.763L417.201,238.813L414.152,240.144L412.566,241.424L410.771,242.371L406.443,244.381L403.759,244.81L401.187,246.74L400.64,247.621L396.824,249.966L397.206,250.549L393.78,252.014L387.571,254.15L389.081,252.798L393.089,250.2L392.133,250.097L389.384,251.313L386.93,252.936L385.223,254.41L384.136,255.158L379.821,257.732L376.372,259.394L377.126,258.309L380.073,255.566L376.474,258.099L374.05,259.943L372.515,260.878L373.484,258.961L375.718,256.827L377.815,255.273L379.18,254.723L381.456,253.06L383.691,251.514L382.322,252.166L381.717,251.608L383.441,250.585L386.846,249.198L386.786,249.733L387.399,250.079L389.091,249.212L391.484,248.262L396.252,246.623L398.366,245.658L400.008,244.875L402.315,243.53L404.032,242.358L405.24,242.058L408.344,240.67L408.702,240.348L410.46,239.563L409.077,239.939L408.756,239.708L410.77,238.426L412.913,237.43L414.273,236.803L416.303,236.063L418.068,235.607L418.67,235.28L423.673,233.744L427.685,232.684L429.299,232.355L429.815,232.521ZM432.975,230.595L431.465,231.018L435.144,230.019L436.564,229.677L436.564,229.677L434.874,230.141L434.423,230.327L432.925,230.725L431.249,231.132L428.37,231.981L424.306,233.147L423.574,233.333L424.612,233.01L426.809,232.35L427.686,232.092L427.686,232.092ZM427.591,232.387L424.601,233.169L425.401,232.877L429.85,231.596L432.171,230.977L433.894,230.562L434.692,230.426L433.585,230.861L431.627,231.529L427.964,232.374ZM438.316,229.616L436.705,229.957L437.743,229.609L439.582,229.103L441.438,228.714L442.055,228.677L439.99,229.203ZM576.852,227.093L576.74,227.069L573.42,226.36L571.711,226.004L571.156,225.89L571.156,225.89ZM448.798,227.04L446.268,227.591L443.849,228.1L440.61,228.793L441.052,228.615L442.402,228.266L445.053,227.683L445.658,227.494L449.18,226.763L448.437,226.955L449.195,226.879L448.228,227.147ZM454.306,225.6L454.692,225.525L455.57,225.363L454.392,225.596L452.134,226.039L452.134,226.039L450.35,226.405L450.462,226.39L449.58,226.587L447.331,227.063L445.685,227.421L445.849,227.384L445.85,227.384ZM578.962,249.738L578.497,250.029L573.771,250.246L572.048,249.298L568.834,248.965L567.041,247.803L567.715,247.208L566.01,246.059L565.708,244.058L564.268,243.929L564.075,241.914L562.298,241.092L562.726,239.847L563.432,238.302L565.493,237.561L565.354,236.724L566.256,236.262L568.368,236.804L569.149,237.408L568.316,238.738L567.444,239.997L567.826,242.184L569.561,244.303L570.91,246.498L573.847,248.241ZM448.93,227.28L446.95,227.754L446.246,228.065L444.348,228.535L442.588,228.886L441.09,229.325L439.72,229.697L439.093,229.984L438.272,230.341L438.972,230.373L439.004,230.633L438.393,231.007L436.352,231.664L434.244,232.231L432.984,232.456L432.13,232.449L432.976,232.045L432.884,231.689L433.399,231.319L434.551,230.862L437.13,229.992L439.924,229.315L442.367,228.763L444.872,228.15L446.323,227.697L448.307,227.223L450.08,226.91ZM450.643,227.026L450.671,226.984L451.714,226.65L453.153,226.375L452.304,226.678L451.157,226.941ZM459.759,224.615L459.811,224.579L462.139,224.176L462.874,224.067L462.34,224.178L460.803,224.453ZM522.661,238.23L520.502,239.021L518.389,238.63L519.006,238.155L518.186,237.596L520.235,237.206L520.923,237.859ZM463.233,224.086L463.153,224.062L464.203,223.867L464.77,223.783L465.365,223.725L464.854,223.812ZM453.973,226.278L453.584,226.238L455.031,225.936L456.972,225.589L458.956,225.275L458.251,225.472L457.714,225.598L455.607,226.025ZM457.009,225.487L454.89,225.861L456.172,225.55L458.459,225.092L459.761,224.781L460.591,224.701L462.272,224.396L464.013,224.15L462.452,224.467L459.554,225.044ZM572.801,229.074L574.483,230.344L567.919,228.657L567.392,228.433L567.754,228.396L570.716,228.612ZM515.041,235.158L518.549,236.366L516.179,237.078L515.829,238.389L514.908,238.737L514.532,240.28L513.095,240.359L510.583,239.215L511.631,238.567L510.013,238.045L508.185,236.551L507.721,235.227L510.339,234.661L510.795,235.235L512.135,235.214L512.473,234.656L513.8,234.598ZM521.065,233.916L523.131,234.423L522.344,235.334L519.703,235.594L516.807,235.364L516.515,234.913L515.19,234.896L514.085,234.165L516.661,233.699L518.043,234.058L518.71,233.573ZM541.054,232.491L540.502,232.775L540.074,232.948L540.442,233.2L540.031,233.527L538.558,233.244L538.128,232.746L536.411,232.838L537.353,232.456L538.389,232.341L539.306,232.718L539.02,232.334L539.186,232.039L540.852,232.247ZM569.631,229.207L570.024,229.647L568.142,229.715L565.904,229.515L562.147,228.846L560.877,228.804L557.906,227.824L557.067,227.377L559.864,227.617L565.044,228.255ZM459.329,226.184L457.479,226.599L456.247,226.663L452.913,227.051L453.047,226.859L454.316,226.457L456.647,225.982L458.411,225.706L459.461,225.612L460.004,225.385L461.971,225.019L464.36,224.652L466.27,224.462L467.538,224.361L467.597,224.431L468.83,224.256L468.488,224.473L465.546,224.934L464.096,225.269L462.808,225.593ZM476.226,225.634L476.047,225.925L475.643,226.21L474.516,226.594L473.165,226.814L470.598,226.949L469.273,226.874L468.024,226.971L468.297,227.198L464.921,227.482L463.319,227.55L458.991,228.107L458.043,227.999L456.983,228.109L456.446,227.806L455.773,228.112L454.87,228.189L452.32,228.801L450.582,229.015L449.197,229.078L447.22,229.423L445.816,229.524L444.649,229.796L444.715,230.032L443.472,230.313L440.663,230.556L442.443,229.794L442.278,229.467L443.254,229.087L444.057,228.718L446.466,228.21L447.068,228.28L450.794,227.512L450.99,227.538L448.243,228.358L451.748,227.537L453.069,227.13L454.828,226.906L455.681,226.945L457.396,226.688L459.624,226.189L462.301,225.748L461.632,226.113L460.972,226.294L462.659,226.199L463.516,225.845L463.756,225.48L465.815,225.049L468.011,224.706L469.718,224.414L471.464,224.207L472.113,224.252L472.064,224.348L472.573,224.449L474.272,224.386L473.869,224.528L472.315,224.791L475.023,224.553L475.753,224.582L476.219,224.677L476.338,224.919L475.778,225.03L476.68,225.175L476.422,225.403ZM489.301,228.314L489.756,229.596L487.556,229.972L485.35,229.79L482.27,229.54L481.848,229.791L484.068,229.906L484.54,230.546L486.648,230.276L486.002,230.795L483.484,231.504L486.246,231.166L490.406,230.922L491.867,231.338L491.229,231.968L486.502,232.766L485.462,233.069L482.609,233.106L484.194,233.337L481.222,234.364L478.683,235.321L475.463,237.158L474.736,238.395L473.094,238.321L470.553,238.718L470.828,239.855L468.623,241.463L467.182,241.525L466.154,243.337L463.377,243.223L463.521,244.173L462.099,244.848L459.945,244.989L458.276,244.816L457.708,246.381L456.379,247.326L455.199,246.183L453.723,246.673L454.611,247.394L454.445,248.902L452.56,250.755L449.52,250.929L449.679,249.943L449.902,248.487L448.166,250.037L444.934,251.038L448.377,251.553L450.143,251.887L443.665,253.497L437.269,254.901L432.037,255.181L430.538,254.973L427.778,255.693L422.093,257.991L416.621,259.265L415.555,259.206L412.891,259.51L410.166,259.751L406.679,261.115L403.92,262.94L400.707,264.548L395.474,266.255L392.939,268.525L389.127,270.72L384.65,273.379L382.523,273.118L383.882,270.315L381.527,269.672L382.7,267.839L386.064,264.976L389.667,261.195L392.028,259.394L395.825,257.14L398.791,254.548L402.355,252.941L403.436,251.965L409.429,249.635L412.217,249.201L414.387,248.403L418.039,246.82L415.617,247.287L414.558,247.469L413.293,247.551L413.982,246.584L417.071,245.2L419.769,244.244L420.414,244.422L420.559,245.401L422.313,243.776L423.344,242.93L422.112,242.98L422.812,242.332L427.784,240.867L429.212,240.083L432.095,238.736L436.624,236.778L437.997,235.941L440.032,235.31L442.007,233.996L441.784,233.532L440.983,233.129L440.196,232.806L441.656,232.189L444.692,231.113L446.554,231.154L447.11,231.409L447.92,230.426L449.882,229.62L451.872,229.223L454.595,229.25L457.514,229.234L459.413,228.902L460.894,228.198L463.03,227.92L467.07,227.656L467.85,227.713L470.049,227.258L471.788,227.257L473.19,227.408L473.954,227.687L472.739,228.095L476.108,227.791L475.094,228.381L475.211,228.589L474.504,229.131L476.083,228.338L478.087,227.91L481.856,227.574L482.853,227.873L484.861,227.583L486.53,227.71Z" fill="#3a5170" fill-opacity="0.75" stroke="rgba(255,255,255,0.18)" stroke-width="1.5"/>
  </g>

  <path d="M 244.23831941329098 588.9645327184732 Q 592.9108105184407 595.0767688311695 764.0941842225609 425.0719936413003" fill="none" stroke="url(#prism)" stroke-width="30" stroke-linecap="round" opacity="0.55" filter="url(#route)"/>
  <path d="M 244.23831941329098 588.9645327184732 Q 592.9108105184407 595.0767688311695 764.0941842225609 425.0719936413003" fill="none" stroke="url(#prism)" stroke-width="18" stroke-linecap="round"/>

  <circle cx="244.23831941329098" cy="588.9645327184732" r="40" fill="#22d3ee"/>
  <circle cx="244.23831941329098" cy="588.9645327184732" r="16" fill="#ffffff"/>
  <circle cx="548.5385311681833" cy="551.0475160055281" r="20" fill="#22c55e"/>
  <circle cx="764.0941842225609" cy="425.0719936413003" r="40" fill="#e879f9"/>
  <circle cx="764.0941842225609" cy="425.0719936413003" r="16" fill="#ffffff"/>
</svg>
